# xmcd CD database file
#
# Track frame offsets:
#	150
#	17560
#	33035
#	63787
#	76807
#	88282
#	103605
#	125320
#
# Disc length: 2870 seconds
#
# Revision: 1
# Processed by: cddbd v1.5.2PL0 Copyright (c) Steve Scherf et al.
# Submitted via: CDex 1.51
#
DISCID=520b3408
DTITLE=Canned Heat - Living The Blues (Disc-1)
DYEAR=1900
DGENRE=Blues
TTITLE0=Pony Blues
TTITLE1=My Mistake
TTITLE2=Sandy's Blues
TTITLE3=Going Up The Country
TTITLE4=Walking By Myself
TTITLE5=Boogie Music
TTITLE6=One Kind Favor
TTITLE7=Parthenogenesis: I. Nebulosity - II. Rollin' And Tumblin' III. Five Owls - IV. Bear Wires - V. Snooky Flowers - VI. Sunflower Power - VII. Raga Kafi - VIII. Icebag - IX. Chilhood's End
EXTD=
EXTT0=
EXTT1=
EXTT2=
EXTT3=
EXTT4=
EXTT5=
EXTT6=
EXTT7=
PLAYORDER=
